<mxfile host="app.diagrams.net" modified="2021-10-25T12:28:04.471Z" agent="5.0 (Macintosh; Intel Mac OS X 10_15_2) AppleWebKit/537.36 (KHTML, like Gecko) Chrome/94.0.4606.81 Safari/537.36" etag="7ErDDoFAhW9xKmBwxqNI" version="15.5.5" type="github">
  <diagram id="73XBl6DxMWSLZ-Mzj7Kj" name="Page-1">
    <mxGraphModel dx="3400" dy="996" grid="1" gridSize="10" guides="1" tooltips="1" connect="1" arrows="1" fold="1" page="1" pageScale="1" pageWidth="827" pageHeight="1169" math="0" shadow="0">
      <root>
        <mxCell id="0" />
        <mxCell id="1" parent="0" />
        <mxCell id="z_ON2gfmLrtd9v5Lrf8q-1" value="" style="endArrow=none;dashed=1;html=1;strokeColor=#000000;strokeWidth=2;dashPattern=1 2;" edge="1" parent="1">
          <mxGeometry width="50" height="50" relative="1" as="geometry">
            <mxPoint x="-73" y="800" as="sourcePoint" />
            <mxPoint x="757" y="800" as="targetPoint" />
          </mxGeometry>
        </mxCell>
        <mxCell id="z_ON2gfmLrtd9v5Lrf8q-2" value="" style="rounded=1;whiteSpace=wrap;html=1;shadow=1;" vertex="1" parent="1">
          <mxGeometry x="507" y="566" width="240" height="205" as="geometry" />
        </mxCell>
        <mxCell id="z_ON2gfmLrtd9v5Lrf8q-3" value="" style="rounded=1;whiteSpace=wrap;html=1;shadow=1;dashed=1;" vertex="1" parent="1">
          <mxGeometry x="-100" y="570" width="120" height="104" as="geometry" />
        </mxCell>
        <mxCell id="z_ON2gfmLrtd9v5Lrf8q-4" value="" style="rounded=1;whiteSpace=wrap;html=1;shadow=1;" vertex="1" parent="1">
          <mxGeometry x="517" y="820" width="240" height="365" as="geometry" />
        </mxCell>
        <mxCell id="z_ON2gfmLrtd9v5Lrf8q-5" value="" style="rounded=1;whiteSpace=wrap;html=1;fillColor=#FFB366;strokeColor=#d6b656;shadow=1;" vertex="1" parent="1">
          <mxGeometry x="90" y="820" width="385.25" height="160" as="geometry" />
        </mxCell>
        <mxCell id="z_ON2gfmLrtd9v5Lrf8q-6" value="" style="rounded=1;whiteSpace=wrap;html=1;fillColor=#FFB366;strokeColor=#d6b656;shadow=1;" vertex="1" parent="1">
          <mxGeometry x="95" y="570" width="360" height="90" as="geometry" />
        </mxCell>
        <mxCell id="z_ON2gfmLrtd9v5Lrf8q-7" value="&lt;b&gt;idle-mtop-search： 搜索业务层&lt;/b&gt;" style="text;html=1;resizable=0;autosize=1;align=center;verticalAlign=middle;points=[];fillColor=none;strokeColor=none;rounded=0;shadow=1;" vertex="1" parent="1">
          <mxGeometry x="165" y="575" width="190" height="20" as="geometry" />
        </mxCell>
        <mxCell id="z_ON2gfmLrtd9v5Lrf8q-8" value="" style="rounded=1;whiteSpace=wrap;html=1;fillColor=#FFB366;strokeColor=#d6b656;shadow=1;" vertex="1" parent="1">
          <mxGeometry x="95" y="691" width="360" height="94" as="geometry" />
        </mxCell>
        <mxCell id="z_ON2gfmLrtd9v5Lrf8q-9" value="&lt;b&gt;idle-search： Java网关&lt;/b&gt;" style="text;html=1;resizable=0;autosize=1;align=center;verticalAlign=middle;points=[];fillColor=none;strokeColor=none;rounded=0;shadow=1;" vertex="1" parent="1">
          <mxGeometry x="190" y="691" width="140" height="20" as="geometry" />
        </mxCell>
        <mxCell id="z_ON2gfmLrtd9v5Lrf8q-10" value="算法侧" style="rounded=1;whiteSpace=wrap;html=1;fillColor=#B9E0A5;strokeColor=#FFFFFF;shadow=1;" vertex="1" parent="1">
          <mxGeometry x="-90" y="625" width="100" height="39" as="geometry" />
        </mxCell>
        <mxCell id="z_ON2gfmLrtd9v5Lrf8q-11" value="工程侧" style="rounded=1;whiteSpace=wrap;html=1;fillColor=#FFB366;strokeColor=#d6b656;shadow=1;" vertex="1" parent="1">
          <mxGeometry x="-90" y="574" width="100" height="35" as="geometry" />
        </mxCell>
        <mxCell id="z_ON2gfmLrtd9v5Lrf8q-12" value="卡片合并" style="rounded=1;whiteSpace=wrap;html=1;fillColor=#D4E1F5;strokeColor=#FFFFFF;shadow=1;" vertex="1" parent="1">
          <mxGeometry x="280" y="610" width="90" height="40" as="geometry" />
        </mxCell>
        <mxCell id="z_ON2gfmLrtd9v5Lrf8q-13" value="业务逻辑" style="rounded=1;whiteSpace=wrap;html=1;fillColor=#D4E1F5;strokeColor=#FFFFFF;shadow=1;" vertex="1" parent="1">
          <mxGeometry x="100" y="610" width="90" height="40" as="geometry" />
        </mxCell>
        <mxCell id="z_ON2gfmLrtd9v5Lrf8q-14" value="干预、投放" style="rounded=1;whiteSpace=wrap;html=1;fillColor=#D4E1F5;strokeColor=#FFFFFF;shadow=1;" vertex="1" parent="1">
          <mxGeometry x="379" y="610" width="70" height="40" as="geometry" />
        </mxCell>
        <mxCell id="z_ON2gfmLrtd9v5Lrf8q-15" value="商业化" style="rounded=1;whiteSpace=wrap;html=1;fillColor=#D4E1F5;strokeColor=#FFFFFF;shadow=1;" vertex="1" parent="1">
          <mxGeometry x="201" y="610" width="70" height="40" as="geometry" />
        </mxCell>
        <mxCell id="z_ON2gfmLrtd9v5Lrf8q-16" value="" style="rounded=1;whiteSpace=wrap;html=1;fillColor=#FFB366;strokeColor=#d6b656;shadow=1;" vertex="1" parent="1">
          <mxGeometry x="517" y="579" width="220" height="110" as="geometry" />
        </mxCell>
        <mxCell id="z_ON2gfmLrtd9v5Lrf8q-17" value="鲲鹏（基于奥格插件）" style="rounded=1;whiteSpace=wrap;html=1;fillColor=#D4E1F5;strokeColor=#FFFFFF;shadow=1;" vertex="1" parent="1">
          <mxGeometry x="547" y="655.5" width="160" height="23.5" as="geometry" />
        </mxCell>
        <mxCell id="z_ON2gfmLrtd9v5Lrf8q-18" value="&lt;b&gt;配置投放平台&lt;/b&gt;" style="text;html=1;resizable=0;autosize=1;align=center;verticalAlign=middle;points=[];fillColor=none;strokeColor=none;rounded=0;shadow=1;" vertex="1" parent="1">
          <mxGeometry x="582" y="584" width="90" height="20" as="geometry" />
        </mxCell>
        <mxCell id="z_ON2gfmLrtd9v5Lrf8q-19" value="idleadmin" style="rounded=1;whiteSpace=wrap;html=1;fillColor=#D4E1F5;strokeColor=#FFFFFF;shadow=1;" vertex="1" parent="1">
          <mxGeometry x="627" y="619" width="80" height="28" as="geometry" />
        </mxCell>
        <mxCell id="z_ON2gfmLrtd9v5Lrf8q-20" value="引擎访问封装" style="rounded=1;whiteSpace=wrap;html=1;fillColor=#D4E1F5;strokeColor=#FFFFFF;shadow=1;" vertex="1" parent="1">
          <mxGeometry x="109" y="730" width="70" height="40" as="geometry" />
        </mxCell>
        <mxCell id="z_ON2gfmLrtd9v5Lrf8q-21" value="分桶" style="rounded=1;whiteSpace=wrap;html=1;fillColor=#D4E1F5;strokeColor=#FFFFFF;shadow=1;" vertex="1" parent="1">
          <mxGeometry x="188" y="730" width="90" height="40" as="geometry" />
        </mxCell>
        <mxCell id="z_ON2gfmLrtd9v5Lrf8q-22" value="切流" style="rounded=1;whiteSpace=wrap;html=1;fillColor=#D4E1F5;strokeColor=#FFFFFF;shadow=1;" vertex="1" parent="1">
          <mxGeometry x="288" y="730" width="80" height="40" as="geometry" />
        </mxCell>
        <mxCell id="z_ON2gfmLrtd9v5Lrf8q-23" value="告警" style="rounded=1;whiteSpace=wrap;html=1;fillColor=#D4E1F5;strokeColor=#FFFFFF;shadow=1;" vertex="1" parent="1">
          <mxGeometry x="378" y="730" width="71" height="40" as="geometry" />
        </mxCell>
        <mxCell id="z_ON2gfmLrtd9v5Lrf8q-24" value="&lt;b&gt;外部应用&lt;/b&gt;" style="rounded=1;whiteSpace=wrap;html=1;fillColor=#FFB366;strokeColor=#FFFFFF;shadow=1;" vertex="1" parent="1">
          <mxGeometry x="-90" y="717" width="100" height="45" as="geometry" />
        </mxCell>
        <mxCell id="z_ON2gfmLrtd9v5Lrf8q-25" value="" style="endArrow=classic;html=1;exitX=1;exitY=0.5;exitDx=0;exitDy=0;" edge="1" parent="1" source="z_ON2gfmLrtd9v5Lrf8q-24">
          <mxGeometry width="50" height="50" relative="1" as="geometry">
            <mxPoint x="380" y="581" as="sourcePoint" />
            <mxPoint x="110" y="740" as="targetPoint" />
          </mxGeometry>
        </mxCell>
        <mxCell id="z_ON2gfmLrtd9v5Lrf8q-26" value="&lt;span style=&quot;color: rgb(0 , 0 , 0) ; font-family: &amp;#34;helvetica&amp;#34; ; font-size: 12px ; font-style: normal ; font-weight: 400 ; letter-spacing: normal ; text-align: center ; text-indent: 0px ; text-transform: none ; word-spacing: 0px ; background-color: rgb(248 , 249 , 250) ; display: inline ; float: none&quot;&gt;summary访问&lt;/span&gt;" style="text;whiteSpace=wrap;html=1;" vertex="1" parent="1">
          <mxGeometry x="20" y="717" width="90" height="30" as="geometry" />
        </mxCell>
        <mxCell id="z_ON2gfmLrtd9v5Lrf8q-27" value="" style="endArrow=classic;html=1;exitX=0.5;exitY=1;exitDx=0;exitDy=0;entryX=0.5;entryY=0;entryDx=0;entryDy=0;" edge="1" parent="1" source="z_ON2gfmLrtd9v5Lrf8q-6" target="z_ON2gfmLrtd9v5Lrf8q-8">
          <mxGeometry width="50" height="50" relative="1" as="geometry">
            <mxPoint x="380" y="700" as="sourcePoint" />
            <mxPoint x="430" y="650" as="targetPoint" />
          </mxGeometry>
        </mxCell>
        <mxCell id="z_ON2gfmLrtd9v5Lrf8q-28" value="&lt;span style=&quot;color: rgb(0 , 0 , 0) ; font-family: &amp;#34;helvetica&amp;#34; ; font-size: 12px ; font-style: normal ; font-weight: 400 ; letter-spacing: normal ; text-align: center ; text-indent: 0px ; text-transform: none ; word-spacing: 0px ; background-color: rgb(248 , 249 , 250) ; display: inline ; float: none&quot;&gt;搜索请求&lt;/span&gt;" style="text;whiteSpace=wrap;html=1;" vertex="1" parent="1">
          <mxGeometry x="288" y="666" width="90" height="30" as="geometry" />
        </mxCell>
        <mxCell id="z_ON2gfmLrtd9v5Lrf8q-29" value="" style="rounded=1;whiteSpace=wrap;html=1;fillColor=#D4E1F5;strokeColor=#FFFFFF;shadow=1;" vertex="1" parent="1">
          <mxGeometry x="330" y="825.25" width="140" height="154.75" as="geometry" />
        </mxCell>
        <mxCell id="z_ON2gfmLrtd9v5Lrf8q-30" value="&lt;b&gt;闲鱼主搜 - TPP&lt;/b&gt;" style="text;html=1;resizable=0;autosize=1;align=center;verticalAlign=middle;points=[];fillColor=none;strokeColor=none;rounded=0;shadow=1;" vertex="1" parent="1">
          <mxGeometry x="345" y="830" width="100" height="20" as="geometry" />
        </mxCell>
        <mxCell id="z_ON2gfmLrtd9v5Lrf8q-31" value="" style="rounded=1;whiteSpace=wrap;html=1;fillColor=#D4E1F5;strokeColor=#FFFFFF;shadow=1;" vertex="1" parent="1">
          <mxGeometry x="210" y="825.25" width="115" height="134.75" as="geometry" />
        </mxCell>
        <mxCell id="z_ON2gfmLrtd9v5Lrf8q-32" value="&lt;b&gt;综合网关 (迁移中)&lt;br&gt;SPL&lt;br&gt;&lt;/b&gt;" style="text;html=1;resizable=0;autosize=1;align=center;verticalAlign=middle;points=[];fillColor=none;strokeColor=none;rounded=0;shadow=1;" vertex="1" parent="1">
          <mxGeometry x="208" y="832" width="110" height="30" as="geometry" />
        </mxCell>
        <mxCell id="z_ON2gfmLrtd9v5Lrf8q-33" value="" style="rounded=1;whiteSpace=wrap;html=1;fillColor=#D4E1F5;shadow=1;strokeColor=#FFFFFF;" vertex="1" parent="1">
          <mxGeometry x="99.5" y="825.25" width="100.5" height="134.75" as="geometry" />
        </mxCell>
        <mxCell id="z_ON2gfmLrtd9v5Lrf8q-34" value="QP&lt;br&gt;（Query Planner）" style="rounded=1;whiteSpace=wrap;html=1;fillColor=#FFFFFF;strokeColor=#000000;shadow=1;" vertex="1" parent="1">
          <mxGeometry x="340" y="852.63" width="120" height="40" as="geometry" />
        </mxCell>
        <mxCell id="z_ON2gfmLrtd9v5Lrf8q-35" value="算法重排" style="rounded=1;whiteSpace=wrap;html=1;fillColor=#FFFFFF;strokeColor=#000000;shadow=1;" vertex="1" parent="1">
          <mxGeometry x="340" y="940" width="120" height="33" as="geometry" />
        </mxCell>
        <mxCell id="z_ON2gfmLrtd9v5Lrf8q-36" value="&lt;b&gt;综合网关（在建）&lt;br&gt;TPP&lt;/b&gt;" style="text;html=1;resizable=0;autosize=1;align=center;verticalAlign=middle;points=[];fillColor=none;strokeColor=none;rounded=0;shadow=1;" vertex="1" parent="1">
          <mxGeometry x="98" y="832" width="110" height="30" as="geometry" />
        </mxCell>
        <mxCell id="z_ON2gfmLrtd9v5Lrf8q-37" value="垂搜网关&lt;br&gt;（成交价搜索...）" style="rounded=1;whiteSpace=wrap;html=1;fillColor=#FFFFFF;strokeColor=#000000;shadow=1;" vertex="1" parent="1">
          <mxGeometry x="100" y="860" width="100" height="40" as="geometry" />
        </mxCell>
        <mxCell id="z_ON2gfmLrtd9v5Lrf8q-38" value="" style="rounded=1;whiteSpace=wrap;html=1;fillColor=#FFFFFF;strokeColor=#000000;shadow=1;dashed=1;" vertex="1" parent="1">
          <mxGeometry x="100.25" y="910" width="97.75" height="40" as="geometry" />
        </mxCell>
        <mxCell id="z_ON2gfmLrtd9v5Lrf8q-39" value="Summary访问" style="rounded=1;whiteSpace=wrap;html=1;fillColor=#FFFFFF;strokeColor=#000000;shadow=1;" vertex="1" parent="1">
          <mxGeometry x="220" y="862" width="98" height="40" as="geometry" />
        </mxCell>
        <mxCell id="z_ON2gfmLrtd9v5Lrf8q-40" value="用户搜索" style="rounded=1;whiteSpace=wrap;html=1;fillColor=#FFFFFF;strokeColor=#000000;shadow=1;" vertex="1" parent="1">
          <mxGeometry x="220" y="910" width="100" height="40" as="geometry" />
        </mxCell>
        <mxCell id="z_ON2gfmLrtd9v5Lrf8q-41" value="" style="endArrow=classic;html=1;exitX=0.5;exitY=1;exitDx=0;exitDy=0;entryX=0.5;entryY=0;entryDx=0;entryDy=0;" edge="1" parent="1" source="z_ON2gfmLrtd9v5Lrf8q-8" target="z_ON2gfmLrtd9v5Lrf8q-33">
          <mxGeometry width="50" height="50" relative="1" as="geometry">
            <mxPoint x="285" y="794" as="sourcePoint" />
            <mxPoint x="295" y="710" as="targetPoint" />
          </mxGeometry>
        </mxCell>
        <mxCell id="z_ON2gfmLrtd9v5Lrf8q-42" value="" style="endArrow=classic;html=1;exitX=0.5;exitY=1;exitDx=0;exitDy=0;" edge="1" parent="1" source="z_ON2gfmLrtd9v5Lrf8q-8">
          <mxGeometry width="50" height="50" relative="1" as="geometry">
            <mxPoint x="280" y="790" as="sourcePoint" />
            <mxPoint x="275" y="824" as="targetPoint" />
          </mxGeometry>
        </mxCell>
        <mxCell id="z_ON2gfmLrtd9v5Lrf8q-43" value="" style="endArrow=classic;html=1;exitX=0.5;exitY=1;exitDx=0;exitDy=0;" edge="1" parent="1" source="z_ON2gfmLrtd9v5Lrf8q-8">
          <mxGeometry width="50" height="50" relative="1" as="geometry">
            <mxPoint x="280" y="794" as="sourcePoint" />
            <mxPoint x="400" y="820" as="targetPoint" />
          </mxGeometry>
        </mxCell>
        <mxCell id="z_ON2gfmLrtd9v5Lrf8q-44" value="" style="shape=singleArrow;direction=west;whiteSpace=wrap;html=1;rounded=1;shadow=1;strokeColor=#000000;fillColor=#FFFFFF;gradientColor=none;rotation=-30;arrowWidth=0.29769793236413683;arrowSize=0.20046510613739665;" vertex="1" parent="1">
          <mxGeometry x="159.54" y="900.3" width="65" height="17.13" as="geometry" />
        </mxCell>
        <mxCell id="z_ON2gfmLrtd9v5Lrf8q-45" value="" style="shape=singleArrow;direction=west;whiteSpace=wrap;html=1;rounded=1;shadow=1;strokeColor=#000000;fillColor=#FFFFFF;gradientColor=none;rotation=30;arrowWidth=0.29769793236413683;arrowSize=0.20046510613739665;" vertex="1" parent="1">
          <mxGeometry x="160.77" y="899.91" width="61.46" height="12.63" as="geometry" />
        </mxCell>
        <mxCell id="z_ON2gfmLrtd9v5Lrf8q-46" value="" style="rounded=1;whiteSpace=wrap;html=1;fillColor=#FFB366;strokeColor=#d6b656;shadow=1;" vertex="1" parent="1">
          <mxGeometry x="89" y="1008.1800000000001" width="389" height="188.82" as="geometry" />
        </mxCell>
        <mxCell id="z_ON2gfmLrtd9v5Lrf8q-47" value="商品主搜引擎" style="rounded=1;whiteSpace=wrap;html=1;fillColor=#D4E1F5;shadow=1;strokeColor=#FFFFFF;" vertex="1" parent="1">
          <mxGeometry x="108" y="1057" width="120" height="52.37" as="geometry" />
        </mxCell>
        <mxCell id="z_ON2gfmLrtd9v5Lrf8q-48" value="" style="shape=doubleArrow;whiteSpace=wrap;html=1;rounded=1;shadow=1;strokeColor=#000000;fillColor=#FFFFFF;gradientColor=none;" vertex="1" parent="1">
          <mxGeometry x="455" y="622.5" width="55" height="15" as="geometry" />
        </mxCell>
        <mxCell id="z_ON2gfmLrtd9v5Lrf8q-49" value="用户搜索引擎" style="rounded=1;whiteSpace=wrap;html=1;fillColor=#D4E1F5;shadow=1;strokeColor=#FFFFFF;" vertex="1" parent="1">
          <mxGeometry x="107" y="1127" width="121" height="52.37" as="geometry" />
        </mxCell>
        <mxCell id="z_ON2gfmLrtd9v5Lrf8q-50" value="优品引擎" style="rounded=1;whiteSpace=wrap;html=1;fillColor=#D4E1F5;shadow=1;strokeColor=#FFFFFF;" vertex="1" parent="1">
          <mxGeometry x="238.17" y="1057" width="114.83" height="52.37" as="geometry" />
        </mxCell>
        <mxCell id="z_ON2gfmLrtd9v5Lrf8q-51" value="Summary引擎" style="rounded=1;whiteSpace=wrap;html=1;fillColor=#D4E1F5;shadow=1;strokeColor=#FFFFFF;" vertex="1" parent="1">
          <mxGeometry x="239.37999999999997" y="1127" width="112.41" height="52.37" as="geometry" />
        </mxCell>
        <mxCell id="z_ON2gfmLrtd9v5Lrf8q-52" value="社区帖子" style="rounded=1;whiteSpace=wrap;html=1;fillColor=#D4E1F5;shadow=1;strokeColor=#FFFFFF;" vertex="1" parent="1">
          <mxGeometry x="358.41999999999996" y="1057" width="114.83" height="52.37" as="geometry" />
        </mxCell>
        <mxCell id="z_ON2gfmLrtd9v5Lrf8q-53" value="成交价搜索" style="rounded=1;whiteSpace=wrap;html=1;fillColor=#D4E1F5;shadow=1;strokeColor=#FFFFFF;" vertex="1" parent="1">
          <mxGeometry x="358.41999999999996" y="1127" width="114.83" height="52.37" as="geometry" />
        </mxCell>
        <mxCell id="z_ON2gfmLrtd9v5Lrf8q-54" value="&lt;b&gt;基于Tisplus平台的Ha3服务&lt;/b&gt;" style="text;html=1;resizable=0;autosize=1;align=center;verticalAlign=middle;points=[];fillColor=none;strokeColor=none;rounded=0;shadow=1;" vertex="1" parent="1">
          <mxGeometry x="191.79" y="1017" width="160" height="20" as="geometry" />
        </mxCell>
        <mxCell id="z_ON2gfmLrtd9v5Lrf8q-55" value="" style="endArrow=classic;html=1;" edge="1" parent="1">
          <mxGeometry width="50" height="50" relative="1" as="geometry">
            <mxPoint x="285" y="970" as="sourcePoint" />
            <mxPoint x="285" y="1012" as="targetPoint" />
          </mxGeometry>
        </mxCell>
        <mxCell id="z_ON2gfmLrtd9v5Lrf8q-56" value="" style="rounded=1;whiteSpace=wrap;html=1;fillColor=#B9E0A5;strokeColor=#FFFFFF;shadow=1;" vertex="1" parent="1">
          <mxGeometry x="527" y="831" width="220" height="88" as="geometry" />
        </mxCell>
        <mxCell id="z_ON2gfmLrtd9v5Lrf8q-57" value="&lt;b&gt;QP服务&lt;/b&gt;" style="text;html=1;resizable=0;autosize=1;align=center;verticalAlign=middle;points=[];fillColor=none;strokeColor=none;rounded=0;shadow=1;" vertex="1" parent="1">
          <mxGeometry x="602" y="839" width="60" height="20" as="geometry" />
        </mxCell>
        <mxCell id="z_ON2gfmLrtd9v5Lrf8q-58" value="类目预测" style="rounded=1;whiteSpace=wrap;html=1;fillColor=#FFFFFF;strokeColor=#000000;shadow=1;" vertex="1" parent="1">
          <mxGeometry x="537" y="871.63" width="60" height="40" as="geometry" />
        </mxCell>
        <mxCell id="z_ON2gfmLrtd9v5Lrf8q-59" value="同义词" style="rounded=1;whiteSpace=wrap;html=1;fillColor=#FFFFFF;strokeColor=#000000;shadow=1;" vertex="1" parent="1">
          <mxGeometry x="607" y="871.63" width="60" height="40" as="geometry" />
        </mxCell>
        <mxCell id="z_ON2gfmLrtd9v5Lrf8q-60" value="个性化" style="rounded=1;whiteSpace=wrap;html=1;fillColor=#FFFFFF;strokeColor=#000000;shadow=1;" vertex="1" parent="1">
          <mxGeometry x="677" y="869" width="60" height="42.63" as="geometry" />
        </mxCell>
        <mxCell id="z_ON2gfmLrtd9v5Lrf8q-61" value="" style="rounded=1;whiteSpace=wrap;html=1;fillColor=#B9E0A5;strokeColor=#FFFFFF;shadow=1;" vertex="1" parent="1">
          <mxGeometry x="527" y="1065" width="220" height="88" as="geometry" />
        </mxCell>
        <mxCell id="z_ON2gfmLrtd9v5Lrf8q-62" value="&lt;b&gt;算法重排&lt;/b&gt;" style="text;html=1;resizable=0;autosize=1;align=center;verticalAlign=middle;points=[];fillColor=none;strokeColor=none;rounded=0;shadow=1;" vertex="1" parent="1">
          <mxGeometry x="607" y="1075" width="60" height="20" as="geometry" />
        </mxCell>
        <mxCell id="z_ON2gfmLrtd9v5Lrf8q-63" value="控频率" style="rounded=1;whiteSpace=wrap;html=1;fillColor=#FFFFFF;strokeColor=#000000;shadow=1;" vertex="1" parent="1">
          <mxGeometry x="537" y="1105" width="60" height="40" as="geometry" />
        </mxCell>
        <mxCell id="z_ON2gfmLrtd9v5Lrf8q-64" value="去重" style="rounded=1;whiteSpace=wrap;html=1;fillColor=#FFFFFF;strokeColor=#000000;shadow=1;" vertex="1" parent="1">
          <mxGeometry x="607" y="1105" width="60" height="40" as="geometry" />
        </mxCell>
        <mxCell id="z_ON2gfmLrtd9v5Lrf8q-65" value="打压" style="rounded=1;whiteSpace=wrap;html=1;fillColor=#FFFFFF;strokeColor=#000000;shadow=1;" vertex="1" parent="1">
          <mxGeometry x="677" y="1105" width="60" height="40" as="geometry" />
        </mxCell>
        <mxCell id="z_ON2gfmLrtd9v5Lrf8q-66" value="" style="shape=doubleArrow;whiteSpace=wrap;html=1;rounded=1;shadow=1;strokeColor=#000000;fillColor=#FFFFFF;gradientColor=none;" vertex="1" parent="1">
          <mxGeometry x="477" y="877.63" width="40" height="15" as="geometry" />
        </mxCell>
        <mxCell id="z_ON2gfmLrtd9v5Lrf8q-67" value="KFC" style="rounded=1;whiteSpace=wrap;html=1;fillColor=#D4E1F5;strokeColor=#FFFFFF;shadow=1;" vertex="1" parent="1">
          <mxGeometry x="547" y="619" width="70" height="30" as="geometry" />
        </mxCell>
        <mxCell id="z_ON2gfmLrtd9v5Lrf8q-68" value="" style="rounded=1;whiteSpace=wrap;html=1;fillColor=#FFB366;strokeColor=#d6b656;shadow=1;" vertex="1" parent="1">
          <mxGeometry x="517" y="695" width="220" height="64" as="geometry" />
        </mxCell>
        <mxCell id="z_ON2gfmLrtd9v5Lrf8q-69" value="&lt;b&gt;外部服务&lt;/b&gt;" style="text;html=1;resizable=0;autosize=1;align=center;verticalAlign=middle;points=[];fillColor=none;strokeColor=none;rounded=0;shadow=1;" vertex="1" parent="1">
          <mxGeometry x="592" y="700" width="60" height="20" as="geometry" />
        </mxCell>
        <mxCell id="z_ON2gfmLrtd9v5Lrf8q-70" value="阿里妈妈" style="rounded=1;whiteSpace=wrap;html=1;fillColor=#D4E1F5;strokeColor=#FFFFFF;shadow=1;" vertex="1" parent="1">
          <mxGeometry x="527" y="726" width="70" height="30" as="geometry" />
        </mxCell>
        <mxCell id="z_ON2gfmLrtd9v5Lrf8q-71" value="SNS" style="rounded=1;whiteSpace=wrap;html=1;fillColor=#D4E1F5;strokeColor=#FFFFFF;shadow=1;" vertex="1" parent="1">
          <mxGeometry x="602" y="726" width="70" height="30" as="geometry" />
        </mxCell>
        <mxCell id="z_ON2gfmLrtd9v5Lrf8q-72" value="&lt;font style=&quot;font-size: 16px&quot;&gt;&lt;b&gt;...&lt;/b&gt;&lt;/font&gt;" style="rounded=1;whiteSpace=wrap;html=1;fillColor=#D4E1F5;strokeColor=#FFFFFF;shadow=1;" vertex="1" parent="1">
          <mxGeometry x="677" y="726" width="60" height="30" as="geometry" />
        </mxCell>
        <mxCell id="z_ON2gfmLrtd9v5Lrf8q-73" value="Ha3排序" style="rounded=1;whiteSpace=wrap;html=1;fillColor=#FFFFFF;strokeColor=#000000;shadow=1;" vertex="1" parent="1">
          <mxGeometry x="340" y="900" width="120" height="32.63" as="geometry" />
        </mxCell>
        <mxCell id="z_ON2gfmLrtd9v5Lrf8q-74" value="" style="rounded=1;whiteSpace=wrap;html=1;fillColor=#B9E0A5;strokeColor=#FFFFFF;shadow=1;" vertex="1" parent="1">
          <mxGeometry x="527" y="932.63" width="220" height="107.37" as="geometry" />
        </mxCell>
        <mxCell id="z_ON2gfmLrtd9v5Lrf8q-75" value="&lt;b&gt;Ha3排序&lt;/b&gt;" style="text;html=1;resizable=0;autosize=1;align=center;verticalAlign=middle;points=[];fillColor=none;strokeColor=none;rounded=0;shadow=1;" vertex="1" parent="1">
          <mxGeometry x="607" y="940" width="60" height="20" as="geometry" />
        </mxCell>
        <mxCell id="z_ON2gfmLrtd9v5Lrf8q-76" value="粗排" style="rounded=1;whiteSpace=wrap;html=1;fillColor=#FFFFFF;strokeColor=#000000;shadow=1;" vertex="1" parent="1">
          <mxGeometry x="537" y="990" width="93" height="40" as="geometry" />
        </mxCell>
        <mxCell id="z_ON2gfmLrtd9v5Lrf8q-77" value="精排/final_sort" style="rounded=1;whiteSpace=wrap;html=1;fillColor=#FFFFFF;strokeColor=#000000;shadow=1;" vertex="1" parent="1">
          <mxGeometry x="650" y="990" width="87" height="40" as="geometry" />
        </mxCell>
        <mxCell id="z_ON2gfmLrtd9v5Lrf8q-78" value="" style="rounded=0;whiteSpace=wrap;html=1;shadow=1;" vertex="1" parent="1">
          <mxGeometry x="-1010" y="636" width="500" height="134" as="geometry" />
        </mxCell>
        <mxCell id="z_ON2gfmLrtd9v5Lrf8q-79" value="&lt;b&gt;YuSearch 搜索业务平台&lt;/b&gt;" style="text;html=1;resizable=0;autosize=1;align=center;verticalAlign=middle;points=[];fillColor=none;strokeColor=none;rounded=0;shadow=1;" vertex="1" parent="1">
          <mxGeometry x="-860" y="644" width="150" height="20" as="geometry" />
        </mxCell>
        <mxCell id="z_ON2gfmLrtd9v5Lrf8q-82" value="" style="rounded=0;whiteSpace=wrap;html=1;shadow=1;" vertex="1" parent="1">
          <mxGeometry x="-1000" y="818.13" width="130" height="191.87" as="geometry" />
        </mxCell>
        <mxCell id="z_ON2gfmLrtd9v5Lrf8q-83" value="&lt;b&gt;VSearch 通用垂搜&lt;/b&gt;" style="text;html=1;resizable=0;autosize=1;align=center;verticalAlign=middle;points=[];fillColor=none;strokeColor=none;rounded=0;shadow=1;" vertex="1" parent="1">
          <mxGeometry x="-990" y="830" width="120" height="20" as="geometry" />
        </mxCell>
        <mxCell id="z_ON2gfmLrtd9v5Lrf8q-84" value="租房" style="rounded=0;whiteSpace=wrap;html=1;shadow=1;fontSize=24;" vertex="1" parent="1">
          <mxGeometry x="-1000" y="862" width="130" height="50" as="geometry" />
        </mxCell>
        <mxCell id="z_ON2gfmLrtd9v5Lrf8q-85" value="用户" style="rounded=0;whiteSpace=wrap;html=1;shadow=1;fontSize=24;" vertex="1" parent="1">
          <mxGeometry x="-1000" y="912" width="130" height="50" as="geometry" />
        </mxCell>
        <mxCell id="z_ON2gfmLrtd9v5Lrf8q-86" value="社区" style="rounded=0;whiteSpace=wrap;html=1;shadow=1;fontSize=24;" vertex="1" parent="1">
          <mxGeometry x="-1000" y="962" width="130" height="38" as="geometry" />
        </mxCell>
        <mxCell id="z_ON2gfmLrtd9v5Lrf8q-95" value="" style="rounded=0;whiteSpace=wrap;html=1;fontSize=24;" vertex="1" parent="1">
          <mxGeometry x="-680" y="1150" width="521.42" height="530" as="geometry" />
        </mxCell>
        <mxCell id="z_ON2gfmLrtd9v5Lrf8q-96" value="商品pipeline" style="rounded=1;whiteSpace=wrap;html=1;shadow=1;fontSize=24;" vertex="1" parent="1">
          <mxGeometry x="-622" y="1180" width="174" height="260" as="geometry" />
        </mxCell>
        <mxCell id="z_ON2gfmLrtd9v5Lrf8q-97" value="summary" style="rounded=1;whiteSpace=wrap;html=1;shadow=1;fontSize=24;" vertex="1" parent="1">
          <mxGeometry x="-599.8699999999999" y="1470" width="402" height="70" as="geometry" />
        </mxCell>
        <mxCell id="z_ON2gfmLrtd9v5Lrf8q-98" value="极速推pipeline" style="rounded=1;whiteSpace=wrap;html=1;shadow=1;fontSize=24;" vertex="1" parent="1">
          <mxGeometry x="-377.8699999999999" y="1180" width="174" height="260" as="geometry" />
        </mxCell>
        <mxCell id="z_ON2gfmLrtd9v5Lrf8q-99" value="混排TPP" style="rounded=1;whiteSpace=wrap;html=1;shadow=1;fontSize=24;" vertex="1" parent="1">
          <mxGeometry x="-1150" y="1553" width="402" height="70" as="geometry" />
        </mxCell>
        <mxCell id="z_ON2gfmLrtd9v5Lrf8q-100" value="主搜TPP" style="rounded=0;whiteSpace=wrap;html=1;fontSize=24;" vertex="1" parent="1">
          <mxGeometry x="-680" y="1000" width="521.42" height="150" as="geometry" />
        </mxCell>
        <mxCell id="z_ON2gfmLrtd9v5Lrf8q-101" value="混排" style="rounded=1;whiteSpace=wrap;html=1;shadow=1;fontSize=24;" vertex="1" parent="1">
          <mxGeometry x="-601" y="1553" width="402" height="70" as="geometry" />
        </mxCell>
        <mxCell id="z_ON2gfmLrtd9v5Lrf8q-102" value="" style="endArrow=classic;html=1;rounded=0;fontSize=24;exitX=0;exitY=0.5;exitDx=0;exitDy=0;entryX=1;entryY=0.5;entryDx=0;entryDy=0;" edge="1" parent="1" source="z_ON2gfmLrtd9v5Lrf8q-101" target="z_ON2gfmLrtd9v5Lrf8q-99">
          <mxGeometry width="50" height="50" relative="1" as="geometry">
            <mxPoint x="-429.145" y="880" as="sourcePoint" />
            <mxPoint x="-429" y="1010" as="targetPoint" />
          </mxGeometry>
        </mxCell>
        <mxCell id="z_ON2gfmLrtd9v5Lrf8q-103" value="混排" style="rounded=0;whiteSpace=wrap;html=1;shadow=1;fontSize=24;" vertex="1" parent="1">
          <mxGeometry x="-990" y="724" width="470" height="38" as="geometry" />
        </mxCell>
      </root>
    </mxGraphModel>
  </diagram>
</mxfile>
